HIERARCHY
ROOT Hips
{
 OFFSET 0.000000 0.000000 0.000000
 CHANNELS 6 Xposition Yposition Zposition Yrotation Xrotation Zrotation
 JOINT Chest
 {
  OFFSET 0.000000 9.585900 0.002600
  CHANNELS 3 Yrotation Xrotation Zrotation
  JOINT Chest2
  {
   OFFSET 0.000000 9.601200 -0.005300
   CHANNELS 3 Yrotation Xrotation Zrotation
   JOINT Chest3
   {
    OFFSET 0.000000 9.561800 0.000000
    CHANNELS 3 Yrotation Xrotation Zrotation
    JOINT Chest4
    {
     OFFSET 0.000000 9.552100 0.000000
     CHANNELS 3 Yrotation Xrotation Zrotation
     JOINT Neck
     {
      OFFSET 0.000000 14.453000 0.000000
      CHANNELS 3 Yrotation Xrotation Zrotation
      JOINT Head
      {
       OFFSET 0.000000 8.936500 -0.011300
       CHANNELS 3 Yrotation Xrotation Zrotation
       End Site
       {
        OFFSET 0.000000 17.073600 -0.006000
       }
      }
     }
     JOINT RightCollar
     {
      OFFSET -2.921100 9.558500 0.000000
      CHANNELS 3 Yrotation Xrotation Zrotation
      JOINT RightShoulder
      {
       OFFSET -13.519700 0.000000 0.000000
       CHANNELS 3 Yrotation Xrotation Zrotation
       JOINT RightElbow
       {
        OFFSET 0.000000 -29.696600 0.000000
        CHANNELS 3 Yrotation Xrotation Zrotation
        JOINT RightWrist
        {
         OFFSET 0.000000 -24.004700 0.000000
         CHANNELS 3 Yrotation Xrotation Zrotation
         End Site
         {
          OFFSET 0.000000 -17.728500 0.000000
         }
        }
       }
      }
     }
     JOINT LeftCollar
     {
      OFFSET 2.921100 9.558500 0.000000
      CHANNELS 3 Yrotation Xrotation Zrotation
      JOINT LeftShoulder
      {
       OFFSET 13.519700 0.000000 0.000000
       CHANNELS 3 Yrotation Xrotation Zrotation
       JOINT LeftElbow
       {
        OFFSET 0.000000 -29.696600 0.000000
        CHANNELS 3 Yrotation Xrotation Zrotation
        JOINT LeftWrist
        {
         OFFSET 0.000000 -24.004700 0.000000
         CHANNELS 3 Yrotation Xrotation Zrotation
         End Site
         {
          OFFSET 0.000000 -17.728500 0.000000
         }
        }
       }
      }
     }
    }
   }
  }
 }
 JOINT RightHip
 {
  OFFSET -7.771700 -0.012900 -0.001300
  CHANNELS 3 Yrotation Xrotation Zrotation
  JOINT RightKnee
  {
   OFFSET 0.000000 -40.869800 0.001200
   CHANNELS 3 Yrotation Xrotation Zrotation
   JOINT RightAnkle
   {
    OFFSET 0.000000 -39.717900 0.002100
    CHANNELS 3 Yrotation Xrotation Zrotation
    JOINT RightToe
    {
     OFFSET 0.000000 -4.965400 11.033500
     CHANNELS 3 Yrotation Xrotation Zrotation
     End Site
     {
      OFFSET 0.000000 -1.423100 5.872300
     }
    }
   }
  }
 }
 JOINT LeftHip
 {
  OFFSET 7.771700 -0.012900 -0.001300
  CHANNELS 3 Yrotation Xrotation Zrotation
  JOINT LeftKnee
  {
   OFFSET 0.000000 -40.869800 0.001200
   CHANNELS 3 Yrotation Xrotation Zrotation
   JOINT LeftAnkle
   {
    OFFSET 0.000000 -39.717900 0.002100
    CHANNELS 3 Yrotation Xrotation Zrotation
    JOINT LeftToe
    {
     OFFSET 0.000000 -4.965400 11.033500
     CHANNELS 3 Yrotation Xrotation Zrotation
     End Site
     {
      OFFSET 0.000000 -1.423100 5.872300
     }
    }
   }
  }
 }
}
MOTION
Frames: 11
Frame Time: 0.008333
0.000000 85.388000 0.000000 0.000000 -5.767877 0.000000 0.000000 11.653817 0.000000 0.000000 -5.885947 0.000000 0.000000 -0.000000 0.000000 0.000000 -0.000000 0.000000 0.000000 12.528835 0.000000 0.000000 0.711642 0.000000 0.000000 -0.000000 0.000000 0.000000 0.000000 -90.000000 0.000000 -2.309062 0.000000 0.000000 2.309062 0.000000 0.000000 -0.000000 0.000000 0.000000 -0.000000 90.000000 0.000000 -2.309062 0.000000 0.000000 2.309062 0.000000 0.000000 8.520406 0.000000 0.000000 1.905762 0.000000 -0.000000 -4.658285 0.000000 0.000000 -0.000000 0.000000 0.000000 8.520406 0.000000 0.000000 1.905762 0.000000 -0.000000 -4.658285 0.000000 0.000000 -0.000000 0.000000
-42.991763 44.060181 31.111956 173.418749 -19.494294 -0.420467 -0.796794 15.589912 3.274227 -0.104738 1.613759 0.378222 -0.219677 2.597722 0.635237 -0.798086 13.948925 3.328579 -5.001301 14.303603 -2.346829 -4.834588 -10.604869 -1.332073 15.332125 -3.034216 -7.099734 -10.885138 -27.118726 -34.795336 -147.908641 -51.760858 165.379798 -11.798522 -2.828083 -11.142590 -17.013871 -2.916502 -3.974354 4.449019 -8.496059 5.674732 110.046652 -52.568878 -155.363817 2.729053 2.209839 -25.090134 -3.885872 -72.823341 15.347988 -152.084513 70.166513 -150.925241 -14.180690 -24.124499 8.416626 0.319673 -0.919661 0.147173 6.812533 -61.161508 -4.253302 174.939183 62.872616 175.988387 -1.247120 -36.805432 2.617369 0.010823 0.108741 0.012616
-42.990316 44.062154 31.108265 173.416045 -19.444579 -0.422428 -0.763926 15.594803 3.283762 -0.101865 1.608267 0.379280 -0.216251 2.589288 0.635341 -0.777205 13.929396 3.338134 -5.023818 14.281588 -2.341275 -4.814460 -10.622118 -1.339097 15.285428 -3.045085 -7.123900 -10.900391 -26.965849 -34.960098 -147.859193 -51.803933 165.348463 -11.706883 -2.653958 -10.817198 -16.941356 -2.875931 -3.922271 4.554321 -8.445078 5.515904 110.623391 -52.590152 -155.823480 2.682722 2.277997 -25.019797 -3.894053 -72.861074 15.357863 -152.079780 70.174196 -150.916246 -14.184749 -24.150559 8.426837 0.354329 -0.902565 0.140265 6.826808 -61.207429 -4.262678 174.953152 62.870275 176.004981 -1.242970 -36.806748 2.612780 0.012334 0.105476 0.015273
-42.990988 44.063820 31.104478 173.435685 -19.382589 -0.420432 -0.756373 15.586513 3.282532 -0.096228 1.604402 0.380120 -0.238289 2.548350 0.636170 -0.732456 13.945316 3.345011 -5.047089 14.256271 -2.335677 -4.788371 -10.638693 -1.347814 15.237886 -3.038316 -7.179029 -10.944660 -26.824959 -35.082792 -147.807892 -51.849397 165.318175 -11.599145 -2.457386 -10.491923 -16.861179 -2.840458 -3.866203 4.654392 -8.391941 5.366550 111.106966 -52.587798 -156.223138 2.628436 2.328420 -25.006801 -3.885599 -72.914094 15.324281 -152.086383 70.173899 -150.911464 -14.196055 -24.174184 8.433642 0.364979 -0.899400 0.136538 6.854204 -61.265960 -4.310877 174.955735 62.870202 176.012696 -1.236656 -36.804205 2.612323 0.011823 0.103284 0.014392
-42.995799 44.064348 31.102278 173.493253 -19.299650 -0.409572 -0.759626 15.600552 3.268964 -0.115656 1.558836 0.381040 -0.208699 2.575784 0.635658 -0.736281 13.896637 3.357225 -5.005984 14.228352 -2.338971 -4.782182 -10.687824 -1.345375 15.168077 -2.999414 -7.278071 -11.007182 -26.714496 -35.147614 -147.748956 -51.897672 165.284036 -11.481237 -2.240333 -10.162153 -16.777519 -2.816552 -3.805792 4.762489 -8.339843 5.229600 111.493694 -52.566791 -156.563478 2.571208 2.365398 -25.033224 -3.853929 -72.994045 15.229463 -152.057326 70.162294 -150.872997 -14.228436 -24.134667 8.431712 0.370893 -0.964366 0.154709 6.885699 -61.347511 -4.410633 174.944686 62.876265 176.003412 -1.236502 -36.796599 2.614932 0.013662 0.107027 0.014111
-42.997695 44.064368 31.100576 173.510328 -19.211580 -0.405542 -0.734968 15.587114 3.273686 -0.120517 1.542087 0.381164 -0.196005 2.582941 0.636661 -0.724277 13.873602 3.366869 -5.041646 14.181440 -2.330847 -4.722861 -10.736018 -1.362330 15.104023 -2.988170 -7.361316 -11.065884 -26.587620 -35.240506 -147.683029 -51.950495 165.242400 -11.358017 -2.014868 -9.831893 -16.684976 -2.806330 -3.740063 4.877592 -8.292541 5.104635 111.796842 -52.535695 -156.855212 2.518984 2.390046 -25.078547 -3.852366 -73.078822 15.206196 -152.045676 70.162763 -150.856949 -14.231803 -24.125339 8.427855 0.368762 -0.978718 0.158838 6.916311 -61.434354 -4.464156 174.936472 62.875290 175.999167 -1.239811 -36.796817 2.616077 0.017082 0.108209 0.014959
-42.996742 44.063768 31.099603 173.503302 -19.119067 -0.413566 -0.693561 15.558094 3.297022 -0.118148 1.539884 0.381490 -0.192027 2.579415 0.637253 -0.702990 13.864450 3.374770 -5.035319 14.136990 -2.327733 -4.720771 -10.786004 -1.358698 15.042993 -2.993934 -7.431130 -11.120070 -26.450525 -35.362111 -147.611850 -52.001972 165.195934 -11.231188 -1.794970 -9.523849 -16.578467 -2.801804 -3.668737 4.988563 -8.254345 4.988284 112.033163 -52.497456 -157.108059 2.468994 2.414023 -25.126774 -3.883258 -73.166241 15.233750 -152.048216 70.167143 -150.851831 -14.182535 -24.159781 8.412809 0.309761 -0.956060 0.151344 6.929343 -61.528676 -4.475075 174.927988 62.867949 175.997729 -1.237015 -36.802362 2.609957 0.013205 0.109349 0.013286
-42.998362 44.062778 31.097979 173.489591 -19.027951 -0.405550 -0.667225 15.498502 3.300406 -0.102073 1.569155 0.385064 -0.187855 2.575888 0.637644 -0.680526 13.855341 3.381789 -5.033301 14.091953 -2.326121 -4.716099 -10.838222 -1.356203 14.978357 -3.000334 -7.501493 -11.174731 -26.311074 -35.498580 -147.536195 -52.045561 165.146415 -11.104375 -1.596395 -9.260005 -16.459577 -2.792388 -3.593414 5.083947 -8.230614 4.877412 112.229062 -52.456283 -157.331715 2.416734 2.445741 -25.175824 -3.853847 -73.251058 15.196673 -152.050351 70.179839 -150.845146 -14.136025 -24.151940 8.389953 0.305115 -0.949040 0.146199 6.977030 -61.617072 -4.523509 174.923729 62.863306 176.000910 -1.223621 -36.808429 2.600607 0.010443 0.111193 0.011222
-42.999769 44.061812 31.094973 173.491503 -18.945158 -0.403546 -0.656080 15.446908 3.305555 -0.082559 1.597919 0.388968 -0.184199 2.572139 0.638198 -0.660857 13.845683 3.389434 -5.029755 14.046643 -2.326059 -4.715427 -10.892650 -1.353484 14.915836 -3.017798 -7.558501 -11.220764 -26.161561 -35.666928 -147.451642 -52.081223 165.090121 -10.981240 -1.430084 -9.051945 -16.326690 -2.778120 -3.514921 5.154949 -8.219881 4.773458 112.423864 -52.419231 -157.544606 2.366167 2.480927 -25.230173 -3.857613 -73.329443 15.189416 -152.008030 70.175249 -150.796002 -14.115433 -24.143512 8.374825 0.314374 -0.941159 0.146007 7.004412 -61.698416 -4.566950 174.901950 62.857075 175.987375 -1.217263 -36.814648 2.593397 0.009390 0.112292 0.008455
-42.996772 44.060788 31.091537 173.504411 -18.867839 -0.430059 -0.627156 15.430199 3.346457 -0.081820 1.596578 0.388709 -0.181608 2.568407 0.638936 -0.647044 13.835964 3.397262 -5.019885 13.997519 -2.327352 -4.729884 -10.932684 -1.346627 14.868083 -3.056430 -7.587526 -11.253530 -25.998282 -35.881041 -147.348169 -52.111797 165.022972 -10.865317 -1.297366 -8.900884 -16.173655 -2.758168 -3.430580 5.196567 -8.220220 4.676846 112.654369 -52.392594 -157.770162 2.318856 2.513378 -25.289155 -3.960807 -73.404783 15.277712 -152.027524 70.173520 -150.815853 -14.057320 -24.109410 8.333216 0.234154 -0.964672 0.152859 6.969134 -61.780957 -4.543313 174.916279 62.846735 176.005079 -1.209544 -36.826941 2.594246 0.010448 0.116879 0.003672
-43.001253 44.059750 31.086099 173.526271 -18.797202 -0.411381 -0.598017 15.468316 3.347557 -0.104415 1.546786 0.384588 -0.192038 2.534820 0.635825 -0.626646 13.858199 3.406928 -5.004442 13.943880 -2.328293 -4.765332 -10.943849 -1.336221 14.785262 -3.031575 -7.697188 -11.289946 -25.890761 -35.999581 -147.219767 -52.136028 164.944337 -10.761572 -1.186870 -8.801786 -15.993318 -2.731018 -3.337815 5.207076 -8.232444 4.585804 112.946337 -52.381800 -158.025306 2.271785 2.538060 -25.352845 -3.900815 -73.473000 15.192176 -152.048673 70.175253 -150.823789 -14.133764 -24.106056 8.345884 0.299851 -0.941871 0.152568 7.010079 -61.846343 -4.625579 174.896768 62.844732 175.986559 -1.209344 -36.830217 2.591701 0.010816 0.116895 0.003468
